<svg width="24" height="24" viewBox="0 0 24 24" fill="none" xmlns="http://www.w3.org/2000/svg">
    <circle cx="12" cy="12" r="12" fill="#3969C5"/>
    <path d="M7.16788 17.192C6.67721 17.192 6.19721 17.096 5.72788 16.904C5.26921 16.712 4.85854 16.4133 4.49588 16.008C4.14388 15.6027 3.86121 15.0853 3.64788 14.456C3.43454 13.816 3.32788 13.048 3.32788 12.152C3.32788 11.2027 3.43988 10.3813 3.66388 9.688C3.89854 8.99467 4.20254 8.424 4.57588 7.976C4.95988 7.528 5.39721 7.19733 5.88788 6.984C6.38921 6.76 6.90654 6.648 7.43988 6.648C8.11188 6.648 8.69321 6.77067 9.18388 7.016C9.67454 7.25067 10.0799 7.53333 10.3999 7.864L9.16788 9.272C8.98654 9.08 8.75188 8.91467 8.46388 8.776C8.17588 8.62667 7.88254 8.552 7.58388 8.552C7.30654 8.552 7.04521 8.60533 6.79988 8.712C6.55454 8.81867 6.33588 9 6.14388 9.256C5.96254 9.50133 5.81321 9.82667 5.69588 10.232C5.57854 10.6373 5.50921 11.1333 5.48788 11.72C5.61588 11.5493 5.76521 11.4 5.93588 11.272C6.10654 11.1333 6.28254 11.0213 6.46388 10.936C6.64521 10.84 6.82654 10.7707 7.00788 10.728C7.18921 10.6747 7.35988 10.648 7.51988 10.648C7.95721 10.648 8.35721 10.712 8.71988 10.84C9.09321 10.968 9.41321 11.16 9.67988 11.416C9.95721 11.672 10.1705 11.9973 10.3199 12.392C10.4692 12.7867 10.5439 13.2507 10.5439 13.784C10.5439 14.3173 10.4532 14.792 10.2719 15.208C10.0905 15.624 9.84521 15.9813 9.53588 16.28C9.23721 16.5787 8.87988 16.808 8.46388 16.968C8.05854 17.1173 7.62654 17.192 7.16788 17.192ZM7.11988 15.432C7.47188 15.432 7.77054 15.304 8.01588 15.048C8.27188 14.7813 8.39988 14.36 8.39988 13.784C8.39988 13.24 8.27188 12.8613 8.01588 12.648C7.77054 12.424 7.45588 12.312 7.07188 12.312C6.80521 12.312 6.53321 12.392 6.25588 12.552C5.98921 12.7013 5.74921 12.9573 5.53588 13.32C5.58921 13.7253 5.66921 14.0613 5.77588 14.328C5.88254 14.5947 6.00521 14.8133 6.14388 14.984C6.28254 15.144 6.43188 15.2613 6.59188 15.336C6.76254 15.4 6.93854 15.432 7.11988 15.432ZM16.965 17.192C16.2503 17.192 15.5783 17.08 14.949 16.856C14.3303 16.6213 13.7917 16.28 13.333 15.832C12.8743 15.384 12.5117 14.8293 12.245 14.168C11.989 13.496 11.861 12.7227 11.861 11.848C11.861 10.984 11.9943 10.216 12.261 9.544C12.5277 8.86133 12.8903 8.28533 13.349 7.816C13.8183 7.34667 14.3623 6.98933 14.981 6.744C15.5997 6.49867 16.2557 6.376 16.949 6.376C17.7063 6.376 18.357 6.51467 18.901 6.792C19.445 7.06933 19.8877 7.384 20.229 7.736L18.997 9.24C18.7303 9.00533 18.4477 8.808 18.149 8.648C17.8503 8.488 17.477 8.408 17.029 8.408C16.6237 8.408 16.2503 8.488 15.909 8.648C15.5783 8.79733 15.2903 9.016 15.045 9.304C14.7997 9.592 14.6077 9.944 14.469 10.36C14.341 10.776 14.277 11.2453 14.277 11.768C14.277 12.8453 14.517 13.6827 14.997 14.28C15.4877 14.8667 16.2237 15.16 17.205 15.16C17.4183 15.16 17.6263 15.1333 17.829 15.08C18.0317 15.0267 18.197 14.9467 18.325 14.84V13.048H16.597V11.128H20.405V15.928C20.0423 16.28 19.5623 16.5787 18.965 16.824C18.3677 17.0693 17.701 17.192 16.965 17.192Z" fill="white"/>
</svg>
