<svg width="1em" height="1em" viewBox="0 0 25 24" fill="none" xmlns="http://www.w3.org/2000/svg"><path fill-rule="evenodd" clip-rule="evenodd" d="M23.027 1.011l.033.034c1.269 1.312 1.28 3.362.146 4.742L22 7.25V24H2V2h15.293l.453-.55.14-.17.153-.171.03-.031c1.245-1.272 3.316-1.487 4.756-.254l.036.03.166.157zM15.647 4H4v18h16V9.682l-5.819 7.074-4.909 2.219L6.96 20.02l.599-2.465 1.28-5.279 6.365-7.737.443-.539zm6.014.516l-1.497 1.819-7.231 8.79L9.87 16.51l.805-3.317 6.074-7.384 1.19-1.446.002-.002.078-.095 1.384-1.682.096-.107c.571-.584 1.452-.624 2.026-.134l.097.092c.52.538.567 1.439.04 2.08z" fill="currentColor"/></svg>