<svg width="1em" height="1em" viewBox="0 0 24 24" fill="none" xmlns="http://www.w3.org/2000/svg" focusable="false" role="presentation"><path fill-rule="evenodd" clip-rule="evenodd" d="M13.808.4l-8.72 15.524c-.268.49.109 1.076.693 1.076H23.22c.592 0 .968-.6.685-1.091L15.187.385c-.3-.52-1.092-.511-1.379.014zm.693 2.85L7.901 15H21.1L14.5 3.25zM13.5 6h2v4h-2V6zm1 8a1.5 1.5 0 100-3 1.5 1.5 0 000 3zm8.5 8c0 1.105-.858 2-1.917 2H1.917C.858 24 0 23.105 0 22h23zM3 6h5.98l-1.1 2H3v11h17v-1h2v1a2 2 0 01-2 2H3a2 2 0 01-2-2V8a2 2 0 012-2z" fill="currentColor"></path></svg>